<svg width="188" height="36" viewBox="0 0 188 36" fill="none" xmlns="http://www.w3.org/2000/svg">
<rect width="188" height="36" fill="white"/>
<path d="M71.666 23.3926L72.9375 19.6602H74.8242L72.2754 26H70.6523L70.2891 22.2617L68.6191 26H66.9844L66.6328 19.6602H68.4434L68.3848 23.4336L70.0078 19.6602H71.3496L71.666 23.3926ZM77.2207 20.3516C77.6934 19.8008 78.2383 19.5293 78.8555 19.5371C79.4922 19.5527 79.9629 19.7852 80.2676 20.2344C80.5762 20.6836 80.6875 21.293 80.6016 22.0625L79.9453 26H78.0176L78.6797 22.0391C78.6953 21.9062 78.6992 21.7812 78.6914 21.6641C78.6641 21.2773 78.4492 21.0781 78.0469 21.0664C77.6992 21.0586 77.3906 21.1855 77.1211 21.4473L76.3125 26H74.3848L75.9492 17H77.877L77.2207 20.3516ZM84.7617 19.543C85.3281 19.5508 85.8184 19.6934 86.2324 19.9707C86.6465 20.2441 86.9492 20.627 87.1406 21.1191C87.3359 21.6113 87.4062 22.1582 87.3516 22.7598L87.3398 22.8887C87.2305 23.8613 86.8691 24.6465 86.2559 25.2441C85.6426 25.8418 84.8848 26.1328 83.9824 26.1172C83.4199 26.1094 82.9336 25.9707 82.5234 25.7012C82.1133 25.4277 81.8086 25.0469 81.6094 24.5586C81.4141 24.0703 81.3438 23.5273 81.3984 22.9297C81.4961 21.8906 81.8516 21.0625 82.4648 20.4453C83.082 19.8281 83.8477 19.5273 84.7617 19.543ZM83.3262 22.9297L83.3086 23.2754C83.2539 24.1465 83.5195 24.5898 84.1055 24.6055C84.8633 24.6289 85.3027 24.0137 85.4238 22.7598L85.4473 22.2266C85.4551 21.875 85.3887 21.5957 85.248 21.3887C85.1113 21.1777 84.9082 21.0684 84.6387 21.0605C84.2832 21.0488 83.9902 21.1953 83.7598 21.5C83.5332 21.8008 83.3887 22.2773 83.3262 22.9297ZM91.2363 26C91.1816 25.8477 91.1543 25.6562 91.1543 25.4258C90.7207 25.9023 90.2031 26.1328 89.6016 26.1172C89.0508 26.1094 88.5938 25.9258 88.2305 25.5664C87.8672 25.207 87.6973 24.7715 87.7207 24.2598C87.7402 23.5723 88.0273 23.0449 88.582 22.6777C89.1367 22.3066 89.8945 22.1211 90.8555 22.1211L91.5 22.1328L91.5703 21.7754L91.5938 21.4648C91.5781 21.1094 91.4004 20.9258 91.0605 20.9141C90.6387 20.9062 90.3789 21.1387 90.2812 21.6113L88.3477 21.6172C88.3672 21.1914 88.5059 20.8223 88.7637 20.5098C89.0215 20.1934 89.3711 19.9512 89.8125 19.7832C90.2578 19.6113 90.7305 19.5312 91.2305 19.543C91.7109 19.5547 92.1309 19.6562 92.4902 19.8477C92.8535 20.0352 93.125 20.2988 93.3047 20.6387C93.4844 20.9746 93.5527 21.3633 93.5098 21.8047L93.0352 24.7871L93.0059 25.1504C92.9902 25.4395 93.0273 25.6855 93.1172 25.8887L93.1113 26H91.2363ZM90.1348 24.7227C90.5293 24.7383 90.875 24.5645 91.1719 24.2012L91.3652 23.1816L90.8672 23.1758C90.5586 23.1836 90.293 23.2754 90.0703 23.4512C89.8477 23.623 89.7168 23.8594 89.6777 24.1602C89.6582 24.3203 89.6875 24.4531 89.7656 24.5586C89.8477 24.6602 89.9707 24.7148 90.1348 24.7227ZM98.1562 23.0879H94.7285L94.9922 21.5586H98.4199L98.1562 23.0879ZM101.227 26H99.293L100.395 19.6602H102.328L101.227 26ZM100.564 18.0605C100.557 17.7754 100.656 17.5371 100.863 17.3457C101.074 17.1543 101.328 17.0586 101.625 17.0586C101.926 17.0586 102.176 17.1445 102.375 17.3164C102.578 17.4883 102.684 17.7129 102.691 17.9902C102.699 18.2793 102.6 18.5195 102.393 18.7109C102.186 18.8984 101.932 18.9922 101.631 18.9922C101.338 18.9922 101.088 18.9082 100.881 18.7402C100.678 18.5684 100.572 18.3418 100.564 18.0605ZM106.676 26H104.742L105.832 19.7305L103.846 20.293L104.115 18.7285L107.889 17.4688L108.105 17.4629L106.676 26ZM115.922 19.7012C115.867 20.5293 115.385 21.1758 114.475 21.6406C114.803 21.875 115.047 22.1602 115.207 22.4961C115.367 22.832 115.434 23.2012 115.406 23.6035C115.355 24.3887 115.033 25.0078 114.439 25.4609C113.85 25.9141 113.117 26.1328 112.242 26.1172C111.859 26.1133 111.498 26.0547 111.158 25.9414C110.818 25.8281 110.527 25.6582 110.285 25.4316C109.801 24.9863 109.584 24.4082 109.635 23.6973C109.689 22.7715 110.246 22.0625 111.305 21.5703C110.727 21.1211 110.457 20.5312 110.496 19.8008C110.523 19.3047 110.67 18.8691 110.936 18.4941C111.201 18.1191 111.557 17.832 112.002 17.6328C112.451 17.4297 112.945 17.334 113.484 17.3457C114.266 17.3613 114.879 17.5859 115.324 18.0195C115.773 18.4531 115.973 19.0137 115.922 19.7012ZM113.508 23.4453C113.543 23.1406 113.494 22.8906 113.361 22.6953C113.232 22.5 113.035 22.3984 112.77 22.3906C112.469 22.3828 112.209 22.4883 111.99 22.707C111.771 22.9219 111.641 23.1992 111.598 23.5391C111.562 23.8594 111.613 24.1152 111.75 24.3066C111.891 24.4941 112.094 24.5918 112.359 24.5996C112.648 24.6074 112.9 24.5059 113.115 24.2949C113.33 24.084 113.461 23.8008 113.508 23.4453ZM113.977 19.8066C114.008 19.5176 113.967 19.2891 113.854 19.1211C113.74 18.9492 113.574 18.8633 113.355 18.8633C113.102 18.8555 112.887 18.9473 112.711 19.1387C112.539 19.3301 112.434 19.584 112.395 19.9004C112.363 20.1895 112.404 20.4258 112.518 20.6094C112.631 20.7891 112.799 20.8789 113.021 20.8789C113.268 20.8867 113.479 20.793 113.654 20.5977C113.83 20.4023 113.938 20.1387 113.977 19.8066ZM118.904 19.6543L118.77 20.416C119.277 19.8145 119.889 19.5215 120.604 19.5371C121.189 19.5488 121.625 19.7676 121.91 20.1934C122.199 20.6152 122.305 21.2207 122.227 22.0098L121.559 26H119.625L120.299 21.998C120.314 21.8613 120.318 21.7363 120.311 21.623C120.283 21.252 120.064 21.0664 119.654 21.0664C119.314 21.0586 119.004 21.209 118.723 21.5176L117.932 26H116.004L117.105 19.6602L118.904 19.6543Z" fill="black"/>
<rect x="49" y="23" width="13" height="1" fill="#C4C4C4"/>
<rect x="54" y="21" width="8" height="1" fill="#C4C4C4"/>
</svg>
